<?xml version="1.0" encoding="utf-8"?>
<!-- Generator: Adobe Illustrator 25.4.1, SVG Export Plug-In . SVG Version: 6.00 Build 0)  -->
<svg version="1.1" id="Layer_1" xmlns="http://www.w3.org/2000/svg" xmlns:xlink="http://www.w3.org/1999/xlink" x="0px" y="0px"
	 viewBox="0 0 1026.2 652.2" style="enable-background:new 0 0 1026.2 652.2;" xml:space="preserve">
<style type="text/css">
	.st0{fill:#E6E6E6;}
	.st1{fill:#F2F2F2;}
	.st2{fill:#E4E4E4;}
	.st3{fill:#090814;}
	.st4{fill:#FD6584;}
	.st5{fill:#3F3D56;}
	.st6{opacity:0.1;enable-background:new    ;}
	.st7{fill:#C41015;}
</style>
<g id="Group_24" transform="translate(-671.106 -362.182)">
	<path id="Path_400-270" class="st0" d="M1319.2,999.8c0.1,4.1-0.5,8.2-1.7,12.1c0,0.1-0.1,0.3-0.1,0.4h-24.7c0.4-1.7,0.9-3.4,1.7-5
		c2.1-4.4,5.4-8.1,8.7-11.8c4.6-5.1,9-10.2,9.7-16.8c1.8,2.8,3.2,5.7,4.3,8.8c-1.3,0.5-2.4,1.2-3.4,2.1c-0.3,0.3-0.6,0.6-0.4,1
		c0.1,0.3,0.5,0.4,0.8,0.5c0.8,0.2,1.6,0.3,2.4,0.4c0.6,0.1,1.2,0.2,1.9,0.4C1318.9,994.5,1319.2,997.1,1319.2,999.8L1319.2,999.8z"
		/>
	<path id="Path_401-271" class="st0" d="M1339.9,997.1c-4,2.4-6.5,6.1-8.5,10.3c-1.8,0.4-3.4,1.3-4.8,2.5c-0.3,0.3-0.6,0.6-0.4,1
		c0.1,0.3,0.5,0.4,0.8,0.5c0.8,0.2,1.6,0.3,2.4,0.4c-0.1,0.2-0.2,0.4-0.2,0.5H1303c1.2-1.6,2.5-3.1,3.9-4.5c0.3-0.3,0.6-0.6,1-0.9
		c3.3-3,7.2-5.4,11.3-7.1C1325.7,997,1332.9,996.1,1339.9,997.1z"/>
	<path id="Path_402-272" class="st0" d="M1307.4,1012.3h-23.3c-0.1-1.9-0.1-3.7,0-5.6c1-11.7,7.1-22.3,16.6-29.1
		c-1.2,4.3-0.6,8.6,0.7,12.9c-0.2,0.1-0.4,0.1-0.5,0.2c-1.3,0.5-2.4,1.2-3.4,2.1c-0.3,0.3-0.6,0.6-0.4,1c0.1,0.3,0.5,0.4,0.8,0.5
		c0.8,0.2,1.6,0.3,2.4,0.4c0.6,0.1,1.3,0.2,1.9,0.4c0.3,0,0.6,0.1,0.9,0.2c0,0.1,0.1,0.2,0.1,0.3c1.6,4,2.9,8.1,3.8,12.3
		c0.2,1,0.3,2.1,0.4,3.2C1307.4,1011.4,1307.4,1011.8,1307.4,1012.3z"/>
	<path id="Path_403-273" class="st0" d="M1034.4,990.6c0.2,7.1-0.8,14.2-2.9,21c-0.1,0.2-0.2,0.5-0.2,0.7h-42.7
		c0.6-3,1.6-5.9,2.9-8.7c3.6-7.5,9.4-14,15.1-20.4c7.9-8.8,15.6-17.6,16.8-29.1c3.1,4.8,5.6,9.9,7.4,15.3c-2.2,0.8-4.2,2.1-6,3.7
		c-0.5,0.5-1,1.1-0.7,1.7c0.2,0.5,0.9,0.7,1.4,0.8c1.4,0.3,2.7,0.5,4.1,0.8c1.1,0.2,2.2,0.4,3.3,0.6
		C1033.7,981.5,1034.3,986,1034.4,990.6L1034.4,990.6z"/>
	<path id="Path_404-274" class="st0" d="M1070.3,985.9c-6.9,4.2-11.2,10.6-14.8,17.8c-3.1,0.7-6,2.2-8.3,4.4c-0.5,0.5-1,1.1-0.7,1.7
		c0.2,0.5,0.9,0.7,1.4,0.8c1.3,0.3,2.7,0.5,4.1,0.8c-0.1,0.3-0.3,0.6-0.4,0.9h-45.3c2.1-2.8,4.3-5.4,6.8-7.8c0.5-0.5,1.1-1,1.7-1.6
		c5.8-5.2,12.4-9.4,19.6-12.4C1045.7,985.8,1058.1,984.2,1070.3,985.9z"/>
	<path id="Path_405-275" class="st0" d="M1013.8,1012.3h-40.3c-0.2-3.2-0.2-6.5,0.1-9.7c1.8-20.2,12.3-38.6,28.8-50.4
		c-2.1,7.4-1,14.9,1.2,22.3c-0.3,0.1-0.6,0.2-0.9,0.3c-2.2,0.8-4.2,2.1-6,3.7c-0.5,0.5-1,1.1-0.7,1.7c0.2,0.5,0.9,0.7,1.4,0.8
		c1.4,0.3,2.7,0.5,4.1,0.8c1.1,0.2,2.2,0.4,3.3,0.6c0.5,0.1,1,0.2,1.5,0.3c0.1,0.2,0.1,0.3,0.2,0.5c2.6,7,5.3,14.1,6.6,21.4
		c0.3,1.8,0.5,3.6,0.7,5.5C1013.8,1010.8,1013.8,1011.5,1013.8,1012.3z"/>
	<path id="Path_406-276" class="st1" d="M1113.8,478.7c-11.1-18.4-24.3-38.1-45-44.1c-23.9-7-48.5,6.9-69.4,20.5
		c-62.4,40.8-122.4,85.1-179.9,132.5l0.1,0.7l134.2-9.3c32.3-2.2,65.8-4.8,94.3-20.1c10.8-5.8,21.4-13.6,33.7-14.1
		c15.3-0.7,28.6,10,39,21.1c61.9,65.9,79.8,166.6,149.1,224.5C1226.3,682.6,1174.1,578.4,1113.8,478.7z"/>
	<path id="Path_407-277" class="st2" d="M1479.4,1012.3h-6.1c-53.3-69.3-103.5-140.8-150.5-214.7c-32.8-51.5-64-104-93.6-157.5
		c-1.7-3.2-3.5-6.3-5.2-9.5c-12.2-22.3-24.2-44.8-35.9-67.4c-10.3-20-20.4-40.2-30.3-60.5c-2.8-5.8-5.6-11.6-8.3-17.4
		c-6.4-13.7-12.7-27.5-19.5-41c-6.8-13.7-15-27.9-26.6-38.2c-1.5-1.3-3.1-2.6-4.7-3.8c-1.8-1.3-3.8-2.6-5.8-3.6
		c-0.2-0.1-0.4-0.2-0.6-0.3c-4.9-2.6-10.3-4.2-15.9-4.6c-11.5-0.8-22.2,4-32.2,9.2c-16.9,8.8-33.5,18.1-49.9,28
		c-54.4,32.7-105.8,70.3-153.5,112.3l-0.4,0.3c-62.2,54.6-117.7,116.3-165.6,183.8c-1.5,2.1-4.9,0.1-3.4-2
		c5.8-8.2,11.7-16.4,17.8-24.4c45.1-60,96.5-115.1,153.2-164.3c6.3-5.5,12.8-11,19.2-16.3c31.9-26.4,65.2-50.9,99.9-73.4
		c10.6-6.9,21.4-13.6,32.2-20.1c7.2-4.3,14.4-8.5,21.7-12.7c9.2-5.2,18.5-10.4,27.9-15.2c9.2-4.8,19.1-9,29.6-9.2
		c7.6-0.1,15.1,1.7,21.8,5.3c0.2,0.1,0.4,0.2,0.6,0.3c4.1,2.3,7.9,5.1,11.3,8.3c15.3,14.2,25.6,36.5,33.6,53.6
		c4,8.6,8.1,17.2,12.2,25.8c15.5,32.5,31.7,64.8,48.5,96.7c9,17.1,18.1,34,27.4,51c1.4,2.6,2.9,5.3,4.3,7.9
		c33.6,60.7,69.3,120.2,107.1,178.4C1384.9,886.3,1429.5,948.2,1479.4,1012.3z"/>
	<path id="Path_409-278" class="st2" d="M1295,713.5l53.6-19.6l26.6-9.7c8.7-3.2,17.3-6.8,26.3-9c7.8-2.2,16-2.1,23.8,0.3
		c6.9,2.5,13.2,6.5,18.5,11.5c5.5,5,10.5,10.5,15.2,16.2c5.8,7,11.5,14,17.2,21c23.7,28.9,47.2,58,70.5,87.2
		c23.3,29.2,46.5,58.5,69.6,87.9c23.1,29.5,46,59.1,68.8,88.9c2.8,3.6,5.6,7.3,8.4,10.9c1.5,2,5,0,3.4-2c-22.9-30-46-60-69.3-89.8
		c-23.3-29.9-46.8-59.6-70.4-89.2s-47.4-59.1-71.4-88.5c-6-7.3-11.9-14.6-17.9-21.9c-5.1-6.2-10-12.4-15.6-18.1
		c-10.2-10.5-22.9-19.8-38.1-20.1c-8.9-0.1-17.6,2.7-25.9,5.7c-9,3.2-17.9,6.5-26.8,9.8l-54,19.7l-13.5,4.9
		C1291.6,710.6,1292.6,714.4,1295,713.5L1295,713.5z"/>
	<path id="Path_411-279" class="st1" d="M679.1,498.8l-5.2,4.3c1.8-1.5,3.6-2.9,5.5-4.2L679.1,498.8z"/>
	<path id="Path_412-280" class="st1" d="M1441.8,713.7c-5.3-6.4-11-13.1-18.9-15.7l-7.4,0.3c56.1,99.1,131.8,185.6,222.5,254.4
		L1441.8,713.7z"/>
	<path id="Path_435-281" class="st3" d="M1118.5,917.3l-1,1.2l0.5,0.2L1118.5,917.3z"/>
	<circle id="Ellipse_78" class="st4" cx="1534.9" cy="400.9" r="38.8"/>
	<path id="Path_440-282" class="st0" d="M1621.6,382.6c-2.2-7.3-8.6-12.6-16.2-13.5c-0.1,0-0.2,0-0.3,0c-0.1,0-0.2-0.1-0.3-0.1
		c-13-1.7-27.4,2.4-37.1,11.3c-3.6,3.3-6.5,7.2-8.5,11.7c-3.7-5-9.5-7.9-15.7-7.7c-8,0.5-14.9,6.1-17.1,13.8c-0.2,0.9,0.2,1.9,1,2.5
		c1.2,1,2.6,1.7,4,2.1c3.2,0.7,6.4,1.3,9.7,1.9c6.3,1.1,12.7,2,19.1,2.7c4.2,0.5,8.5,0.8,12.7,1.1c8.8,0.6,17.6,0.7,26.4,0.4
		c4.4-0.1,8.5-0.3,12.5-2.2c2.9-1.4,5.4-3.6,7.2-6.3C1622.4,395,1623.4,388.6,1621.6,382.6z"/>
	<path id="Path_441-283" class="st0" d="M1541.9,439.1c-0.1-1.6-0.3-3.2-0.8-4.8c-2.2-7.3-8.6-12.6-16.2-13.5c-0.1,0-0.2,0-0.2,0
		c-0.1,0-0.2-0.1-0.3-0.1c-7.2-0.9-14.5-0.1-21.3,2.2c-10.5,3.5-19.8,10.6-24.2,20.8c-3.7-5-9.5-7.9-15.7-7.7
		c-8,0.5-14.9,6.1-17.1,13.8c-0.2,0.9,0.2,1.9,1,2.5c1.2,1,2.6,1.7,4,2.1c3.2,0.7,6.4,1.3,9.7,1.9c6.3,1.1,12.7,2,19.1,2.7
		c13,1.4,26,1.9,39.1,1.5c4.3-0.1,8.5-0.3,12.5-2.2c2.9-1.4,5.4-3.6,7.2-6.3C1541,448.1,1542.2,443.6,1541.9,439.1L1541.9,439.1z"/>
	<path id="Path_442-284" class="st5" d="M1556.3,533.8c-0.5,2-0.1,4.1,0.9,5.9c1.3,1.9,3.6,2.7,5.8,1.9c4.1-1.3,8.1-2.7,12.1-4.1
		c1.1-0.3,1.8-1.5,1.5-2.7c-0.3-1.2-1.5-1.8-2.7-1.5l-10.1,3.4c-0.8,0.3-1.5,0.6-2.3,0.8c-0.1,0-0.4,0.1-0.4,0.1c0,0,0.3,0,0,0
		c-0.1,0-0.1,0,0,0l-0.2-0.1c0.2,0.1,0,0-0.1-0.1c-0.1-0.1-0.2-0.3-0.1-0.1c-0.1-0.1-0.2-0.3-0.2-0.4c0.1,0.2-0.1-0.3-0.1-0.4
		c-0.1-0.9,0-1.8,0.2-2.7c0-1.2-1-2.2-2.2-2.2C1557.3,531.6,1556.3,532.6,1556.3,533.8z"/>
	<path id="Path_443-285" class="st5" d="M1394.2,541.4l10.7,13.5c1.4,1.7,4.3-0.1,3.6-2.1c-1.3-4,3.3-6.3,6.5-7
		c4.2-0.9,8.5-0.7,12.5-2.6c2.5-1.2,0.3-4.9-2.2-3.8c-4.7,2.1-10.2,1.2-14.9,3.2c-4.2,1.8-7.6,6.5-6,11.2l3.6-2.1l-10.7-13.5
		c-0.9-0.8-2.2-0.8-3.1,0C1393.3,539.2,1393.3,540.6,1394.2,541.4L1394.2,541.4z"/>
	<path id="Path_444-286" class="st5" d="M1372.4,383.2l10.7,13.5c1.4,1.7,4.3-0.1,3.6-2.1c-1.3-4,3.3-6.3,6.5-7
		c4.2-0.9,8.5-0.7,12.5-2.6c2.5-1.2,0.3-4.9-2.2-3.8c-4.7,2.1-10.2,1.2-14.9,3.2c-4.2,1.8-7.6,6.5-6,11.2l3.6-2.1l-10.7-13.5
		c-0.9-0.8-2.2-0.8-3.1,0C1371.6,381,1371.6,382.3,1372.4,383.2L1372.4,383.2z"/>
	<g id="Group_23" transform="translate(882.926 516.662)">
		<path id="Path_345-288" class="st5" d="M288.6,17c0.4,0.9,0.7,1.8,0.8,2.7C289.1,18.3,288.8,17.4,288.6,17z"/>
		<path id="Path_346-289" class="st5" d="M301.7,61.9c-0.2,1.6-0.6,3.2-1.1,4.7L301.7,61.9z"/>
		<path id="Path_347-290" class="st5" d="M435.6,214.6c-28.8,15-66.6,28-77.9,31.8c8.6-2.2,33.7-5.3,72.6,19
			c48.8,30.5,101,10.1,101,10.1s-11.6,22.2-36.3,23.7s-89-39.2-110.7-27.6s-31.9-2.9-40.6,26.1s-24.7,108.3-6.3,152.8l18.4,44.5
			H251.4c0,0,37.7-100.6,16.9-162.4c-11.6-34.7-27.7-80.7-22.2-78.3c0,0-25.1-24.7-33.4-24.7s-46.9-3.9-59.5-16.9
			c0,0-17.9-12.6-49.8,18.4S79.3,262,50.7,259.6c-28.1-2.4-50.1-16-50.8-16.4c0.8,0.3,33.6,13.4,53.6,6.8
			c20.3-6.8,37.7-32.4,55.6-41.1s28.5-20.3,52.7-7.7L146,163.6l-4.4-10.3l0,0c0,0-5.3-70.6-15.5-75.4s-3.9-17.4-22.7-19.8
			c0,0,23.2-2.9,27.6,13.1s34.3,102,34.3,102s18.4,36.7,38.7,28s-7.7-57.5-7.7-57.5l-34.8-16c0,0,26.1-1,42.1,14
			c16,15,16.9,63.3,16.9,63.3s40.1,5.8,49.8,27.6c0,0,32.9-19.8,31.4,9.2c0,0,29-27.6,27.1-36.7s-4.3-30.9-22.7-44
			s-30.5-33.8-17.4-63.8c7.3-16.9,10.6-25.9,12-30.6L293,99.1c0,0-4.8,33.4,8.7,45c0,0,0.1,0.1,0.1,0.1
			c13.5,11.6,31.3,32.8,31.3,32.8L333,176l12.1,32.8c0,0,71.6-2.4,87.5-33.8s29-32.9,29-32.9l-9.2,27.1l-10.2,23.2
			c0,0,41.6,1,63.3,25.6s75.9,31.9,75.9,31.9l-30.5,8.2c0,0-29-9.7-56.6-27.6S469.9,196.8,435.6,214.6z"/>
		<path id="Path_348-291" class="st6" d="M451,148.7c-3.1,13.5-6.7,26.6-11.7,36.6c-16,31.4-87.5,33.8-87.5,33.8s0.3-4.2,0.9-10.7
			c18.2-1.5,67.8-7.9,80.8-33.4c1.2-2.3,2.3-4.8,3.3-7.5L451,148.7z"/>
		<path id="Path_350-292" class="st6" d="M350,126.2C349.9,138.1,360.2,115.1,350,126.2z"/>
		<path id="Path_351-293" class="st6" d="M308.3,241.4V252c0,0,29-27.6,27.1-36.7c-1.5-7-3.2-21.4-12.2-33.6
			c4,9.2,5.3,18.2,6.3,23.3c1.4,6.6-13.1,22.6-21.5,31.2C308.3,237.9,308.4,239.6,308.3,241.4z"/>
		<path id="Path_352-294" class="st6" d="M269.3,168.4c0.2,0.5,0.5,1,0.7,1.4c7.4,13.8,18.6,28.4,27,41.8
			C290.3,198.3,278.5,183.1,269.3,168.4z"/>
		<path id="Path_353-295" class="st6" d="M431,265.4c-15.9-9.9-29.5-15.3-40.6-18c-11.6,4.4-21.2,7.7-26.1,9.3
			c8.7-2.2,33.7-5.2,72.5,19c30.5,19,62.2,18.2,81.8,15c5.4-4.1,10-9.2,13.4-15.1C532,275.6,479.8,295.9,431,265.4z"/>
		<path id="Path_354-296" class="st6" d="M292.9,147.8c-3.9-9.6-4.5-20.9-0.1-34.2c-0.1-4.8,0.2-9.7,0.8-14.4l7.6-32.6
			c-1.4,4.7-4.6,13.8-12,30.6C280,118.5,283.5,135.2,292.9,147.8z"/>
		<path id="Path_355-297" class="st6" d="M506.4,218c-15.1-17.1-39.7-22.8-53.4-24.7l-4.1,9.3c0,0,41.6,1,63.3,25.6
			c12.1,13.7,34.1,22,51.3,26.7l18.7-5.1C582.3,249.9,528.2,242.7,506.4,218z"/>
		<path id="Path_356-298" class="st6" d="M210.6,211.4c20.3-8.7-7.7-57.5-7.7-57.5l-0.8-0.4c7,14.7,17.1,41.4,2.6,47.6
			c-13.6,5.8-26.3-8.6-33.2-18.9l0.4,1.1C171.9,183.3,190.3,220.1,210.6,211.4z"/>
		<path id="Path_358-299" class="st6" d="M301.3,66.5c0.5-1.5,0.9-3.1,1.1-4.7L301.3,66.5z"/>
		<path id="Path_359-300" class="st6" d="M60,260.3c0.1,0,0.2-0.1,0.3-0.1c20.3-6.8,37.7-32.4,55.6-41.1s28.5-20.3,52.7-7.7
			c0,0-4.2-17.3-12.4-28.7c2.7,5.9,4.9,12.1,6.6,18.4c-24.2-12.6-34.8-1-52.7,7.7s-35.3,34.3-55.6,41.1c-20.3,6.8-53.7-6.8-53.7-6.8
			s22.2,14,50.8,16.4C54.7,259.9,57.5,260.1,60,260.3z"/>
		<path id="Path_360-301" class="st6" d="M148.2,163.5c0,0-0.8,0-2.2,0l-4.4-10.3c0.5,0,0.7,0,0.7,0s-3.4-44.5-9.8-65.3
			c0.1,0,0.1,0.1,0.2,0.1C142.9,92.9,148.2,163.5,148.2,163.5z"/>
		<path id="Path_361-302" class="st6" d="M261.5,495c8.9-27.2,30.2-102.2,13.4-152.2c-7.2-21.6-14-35.3-19.6-44.1
			c5.4,10.9,10,22.2,13.8,33.8c20.8,61.9-16.9,162.4-16.9,162.4H261.5z"/>
		<path id="Path_363-303" class="st6" d="M121.8,73.1c0.6,0.9,1.2,1.8,2,2.5C123.2,74.8,122.5,73.9,121.8,73.1z"/>
		<path id="Path_364-304" class="st6" d="M210.1,151.9c0.7,0.7,1.5,1.5,2.1,2.3c-2.1-5.1-4.7-9.5-8-12.5c-16-15-42.1-14-42.1-14
			l32.7,15C200.5,144.7,205.7,147.9,210.1,151.9z"/>
		<path id="Path_366-305" class="st6" d="M290.2,19.7c-0.2-1-0.5-1.9-0.9-2.8C289.3,16.9,289.7,18,290.2,19.7z"/>
		<path id="Path_367-306" class="st6" d="M119.5,68.4c4.3,0.5,9.2,1.8,12.9,4.9c-0.2-0.8-0.5-1.6-0.6-2.2
			c-4.4-16-27.6-13.1-27.6-13.1C114.7,59.4,117.4,63.8,119.5,68.4z"/>
		<path id="Path_368-307" class="st5" d="M575.4,470.2c-7.2,11.1-5.2,25.1-5.2,25.1s13.7-3.9,20.9-14.9s5.2-25.1,5.2-25.1
			S582.6,459.1,575.4,470.2z"/>
		<path id="Path_369-308" class="st7" d="M580.8,472.2c-0.6,13.2-10.4,23.5-10.4,23.5s-8.9-11.1-8.3-24.3s10.4-23.5,10.4-23.5
			S581.3,459,580.8,472.2z"/>
		
			<ellipse id="Ellipse_73" transform="matrix(0.6407 -0.7678 0.7678 0.6407 -124.8941 489.1882)" class="st1" cx="460.2" cy="378" rx="0.3" ry="0.2"/>
		<path id="Path_386-325" class="st5" d="M358.3,470.2c-7.2,11.1-5.2,25.1-5.2,25.1s13.7-3.9,20.9-14.9s5.2-25.1,5.2-25.1
			S365.5,459.1,358.3,470.2z"/>
		<path id="Path_387-326" class="st7" d="M363.7,472.2c-0.6,13.2-10.4,23.5-10.4,23.5s-8.9-11.1-8.3-24.3s10.4-23.5,10.4-23.5
			S364.3,459,363.7,472.2z"/>
		<path id="Path_388-327" class="st5" d="M239.6,474.4c3.4,12.7,15.3,20.6,15.3,20.6s6.2-12.8,2.8-25.5s-15.3-20.6-15.3-20.6
			S236.2,461.6,239.6,474.4z"/>
		<path id="Path_389-328" class="st7" d="M244.7,471.6c9.5,9.2,10.6,23.4,10.6,23.4s-14.2-0.8-23.6-10S221,461.7,221,461.7
			S235.2,462.4,244.7,471.6z"/>
		<path id="Path_390-329" class="st7" d="M213.3,126.2c-0.8,13.2-10.8,23.3-10.8,23.3s-8.7-11.3-7.8-24.4s10.8-23.3,10.8-23.3
			S214.2,113,213.3,126.2z"/>
		<path id="Path_392-330" class="st7" d="M84.3,203.5c11.2,7,15.2,20.6,15.2,20.6s-14,2.2-25.2-4.8s-15.2-20.6-15.2-20.6
			S73.2,196.5,84.3,203.5z"/>
		<path id="Path_393-331" class="st7" d="M311.3,66.4c-3.4,12.8-15.1,20.7-15.1,20.7s-6.3-12.7-2.9-25.5s15.1-20.7,15.1-20.7
			S314.7,53.6,311.3,66.4z"/>
		<path id="Path_395-332" class="st7" d="M532.3,216.5c-7.2,11.1-20.8,15-20.8,15s-2-14.1,5.1-25.1c7.2-11.1,20.8-15,20.8-15
			S539.5,205.4,532.3,216.5z"/>
		<path id="Path_396-333" class="st5" d="M508.7,68.9"/>
	</g>
	<rect id="Rectangle_125" x="935.8" y="1011.5" class="st5" width="558.1" height="2.9"/>
</g>
</svg>
